<?xml version="1.0" standalone="no"?>
<!DOCTYPE svg PUBLIC "-//W3C//DTD SVG 20010904//EN"
 "http://www.w3.org/TR/2001/REC-SVG-20010904/DTD/svg10.dtd">
<svg version="1.0" xmlns="http://www.w3.org/2000/svg"
 width="512.000000pt" height="512.000000pt" viewBox="0 0 512.000000 512.000000"
 preserveAspectRatio="xMidYMid meet">
<metadata>
Created by potrace 1.14, written by Peter Selinger 2001-2017
</metadata>
<g transform="translate(0.000000,512.000000) scale(0.100000,-0.100000)"
fill="#000000" stroke="none">
<path d="M0 2560 l0 -2560 2560 0 2560 0 0 2560 0 2560 -2560 0 -2560 0 0
-2560z m2312 1376 c117 -29 188 -65 243 -122 118 -124 61 -291 -109 -317 -53
-8 -66 5 -66 65 0 111 -52 259 -104 298 -11 8 -43 27 -70 42 -47 26 -59 28
-167 28 -105 0 -117 -2 -122 -19 -2 -10 -17 -21 -33 -25 -16 -4 -52 -27 -80
-52 -92 -78 -161 -257 -186 -484 -15 -128 -14 -472 0 -593 21 -171 70 -332
126 -412 34 -48 105 -112 139 -126 18 -7 39 -18 48 -26 45 -38 332 -40 367 -3
9 9 26 20 37 24 29 9 119 94 148 142 14 22 31 61 38 85 32 114 98 101 86 -17
-9 -88 -75 -166 -192 -228 -27 -14 -61 -26 -75 -26 -14 0 -31 -5 -38 -12 -7
-7 -72 -13 -191 -15 -167 -3 -186 -2 -263 21 -109 32 -160 56 -234 108 -90 64
-167 156 -217 258 -42 87 -57 136 -83 265 -32 165 -32 326 0 495 41 213 98
331 221 455 67 67 97 88 180 129 69 34 116 51 153 54 28 2 52 8 52 13 0 10 59
15 197 17 79 2 124 -3 195 -22z m837 -790 c23 -13 23 -13 -17 -20 -46 -7 -86
-39 -102 -80 -6 -17 -10 -176 -10 -434 0 -398 0 -406 21 -428 l21 -22 -22 -29
c-20 -28 -21 -36 -18 -325 3 -282 4 -298 24 -325 11 -15 35 -32 53 -38 20 -6
31 -15 29 -25 -3 -13 -38 -15 -249 -18 -201 -2 -248 0 -258 12 -9 11 -4 17 28
29 21 9 48 28 60 43 21 27 21 28 21 795 l0 769 -33 33 c-20 21 -47 37 -70 41
-39 7 -49 21 -19 29 9 3 130 5 267 5 189 1 256 -2 274 -12z m900 8 c45 -9 38
-21 -16 -29 -80 -11 -140 -55 -280 -202 -73 -76 -144 -151 -158 -168 -14 -16
-42 -48 -63 -70 -21 -22 -41 -48 -45 -57 -3 -10 -13 -18 -21 -18 -7 0 -16 -9
-19 -20 -3 -11 -12 -20 -21 -20 -23 0 -20 12 14 43 17 16 30 35 30 43 0 8 7
14 15 14 9 0 20 11 25 25 5 14 16 25 25 25 8 0 15 9 15 20 0 11 7 20 15 20 9
0 20 11 25 25 5 14 16 25 25 25 8 0 15 7 15 15 0 8 9 20 20 27 11 7 20 18 20
25 0 6 8 18 18 25 40 31 85 130 77 170 -8 36 -33 46 -131 55 -84 7 -97 20 -26
26 85 6 409 7 441 1z m-1492 -20 c-3 -3 -12 -4 -19 -1 -8 3 -5 6 6 6 11 1 17
-2 13 -5z m853 -589 c0 -16 -27 -32 -37 -22 -3 4 -3 13 0 22 8 20 37 20 37 0z
m-39 -61 c6 -27 34 -71 214 -333 39 -56 77 -113 85 -126 20 -32 206 -301 276
-400 62 -88 136 -167 171 -182 66 -27 35 -38 -108 -37 -121 1 -140 4 -201 28
-50 21 -80 42 -120 84 -30 31 -156 211 -282 400 -167 252 -233 342 -247 342
-10 0 -19 5 -19 11 0 6 44 60 98 120 53 61 99 115 101 120 6 19 25 3 32 -27z
m-263 -266 c-2 -13 -11 -24 -21 -26 -15 -3 -16 0 -6 22 15 32 32 34 27 4z"/>
</g>
</svg>
